<svg width="200" height="200" version="1.1" xmlns="http://www.w3.org/2000/svg">
    <defs>
        <linearGradient id="Gradient-1" x1="-5%" y1="-5%" x2="140%" y2="100%">
            <stop offset="18%" stop-color="#fffe9d" />
            <stop offset="30%" stop-color="#0bebec" />
            <stop offset="48%" stop-color="#b763ff" />
            <stop offset="66%" stop-color="#ff86e3" />
            <stop offset="100%" stop-color="#f4d3f2" />
        </linearGradient>
        <linearGradient id="Glass-1" x1="0%" y1="-10%" x2="145%" y2="100%">
            <stop offset="15%" stop-color="white" stop-opacity="0" />
            <stop offset="30%" stop-color="white" stop-opacity="1" />
            <stop offset="32%" stop-color="white" stop-opacity="0" />
            <stop offset="30%" stop-color="white" stop-opacity="0" />
            <stop offset="45%" stop-color="white" stop-opacity="1" />
            <stop offset="47%" stop-color="white" stop-opacity="0" />
            <stop offset="60%" stop-color="white" stop-opacity="0" />
            <stop offset="75%" stop-color="white" stop-opacity="1" />
            <stop offset="77%" stop-color="white" stop-opacity="0" />
        </linearGradient>
        <linearGradient id="Glass-2" x1="30%" y1="30%" x2="145%" y2="100%">
            <stop offset="15%" stop-color="white" stop-opacity="0" />
            <stop offset="30%" stop-color="white" stop-opacity="1" />
            <stop offset="32%" stop-color="white" stop-opacity="0" />
        </linearGradient>
        <linearGradient id="pad" href="#Gradient-1" spreadMethod="pad" />
        <linearGradient id="glass" href="#Glass-1" spreadMethod="reflect" />
        <linearGradient href="#Glass-2" id="linearGradient23" x1="20.25714" y1="19.591073" x2="98.563904" y2="67.256058" gradientTransform="matrix(2.1974045,0,0,0.43445372,0.56657084,0.57695201)" gradientUnits="userSpaceOnUse" />
        <linearGradient href="#Glass-2" id="linearGradient24" x1="18.841325" y1="100.7211" x2="91.769067" y2="145.1119" gradientTransform="matrix(2.043901,0,0,0.466564,0.56110408,2.0935601)" gradientUnits="userSpaceOnUse" />
    </defs>
    <!-- Background -->
    <rect width="200" height="200" fill="#2e3032" id="rect17" />
    <g transform="translate(25, 25)" id="g23">
        <!-- Stack of Files -->
        <rect x="0" y="0" width="150" height="30" fill="#fffe9d" rx="4" stroke-linecap="round" fill-rule="evenodd" stroke="#1C1D1E" stroke-width="0.5mm" id="rect18" />
        <rect x="0" y="40" width="130" height="30" fill="#0bebec" rx="4" stroke-linecap="round" fill-rule="evenodd" stroke="#1C1D1E" stroke-width="0.5mm" id="rect19" />
        <rect x="0.56657082" y="0.57695204" width="148.87726" height="28.856104" fill="url(#Glass-2)" rx="3.9700603" fill-rule="evenodd" fill-opacity="0.2" stroke-linecap="round" stroke="#ffffff" stroke-width="0.195778mm" stroke-opacity="0.2" id="rect20" style="fill:url(#linearGradient23)" />
        <rect x="0.561104" y="40.573788" width="128.86555" height="28.860168" fill="url(#Glass-2)" rx="3.9650931" fill-rule="evenodd" fill-opacity="0.2" stroke-linecap="round" stroke="#ffffff" stroke-width="0.195729mm" stroke-opacity="0.2" id="rect21" style="fill:url(#linearGradient24)" />
        <!-- Label -->
        <g id="label">
            <g transform="translate(0, 85) scale(0.75 0.75)" fill="url(#pad)" stroke-linecap="round" fill-rule="nonzero" stroke="#000000" stroke-width="0.5mm" id="g21">
                <path d="M 0.2 49.3 L 23.8 49.3 A 12.615 12.615 0 0 0 23.75 50.026 Q 23.651 52.582 24.75 53.9 Q 26 55.4 28.9 55.4 A 5.953 5.953 0 0 0 30.264 55.252 A 4.351 4.351 0 0 0 31.9 54.5 A 2.927 2.927 0 0 0 33.071 52.412 A 4.328 4.328 0 0 0 33.1 51.9 A 4.391 4.391 0 0 0 31.673 48.646 A 6.889 6.889 0 0 0 30.75 47.9 A 21.24 21.24 0 0 0 29.203 46.953 Q 26.938 45.682 23.2 44.1 Q 18.947 42.31 15.836 40.63 A 48.16 48.16 0 0 1 13.85 39.5 A 20.666 20.666 0 0 1 8.546 34.869 A 24.453 24.453 0 0 1 7.5 33.5 Q 4.8 29.7 4.8 24 Q 4.8 16.5 8.55 11.05 A 22.563 22.563 0 0 1 16.978 3.74 A 27.925 27.925 0 0 1 19 2.8 A 35.66 35.66 0 0 1 27.871 0.428 A 46.624 46.624 0 0 1 34.3 0 Q 42 0 48.05 2.4 Q 54.1 4.8 57.55 9.35 A 16.976 16.976 0 0 1 60.959 18.764 A 21.36 21.36 0 0 1 61 20.1 A 10.643 10.643 0 0 1 60.988 20.573 Q 60.95 21.398 60.8 22.9 L 36.9 22.9 Q 37.073 21.865 37.096 21.425 A 2.349 2.349 0 0 0 37.1 21.3 A 5.264 5.264 0 0 0 36.97 20.095 Q 36.722 19.039 36 18.35 Q 34.913 17.312 33.044 17.301 A 6.839 6.839 0 0 0 33 17.3 A 4.734 4.734 0 0 0 31.684 17.475 A 3.7 3.7 0 0 0 30.2 18.3 A 3.308 3.308 0 0 0 29.105 20.691 A 4.487 4.487 0 0 0 29.1 20.9 A 4.085 4.085 0 0 0 30.089 23.549 Q 30.543 24.103 31.206 24.607 A 8.655 8.655 0 0 0 31.4 24.75 Q 33.313 26.122 37.092 28.013 A 109.881 109.881 0 0 0 38.7 28.8 Q 43.064 30.868 46.285 32.759 A 57.075 57.075 0 0 1 48.15 33.9 A 22.191 22.191 0 0 1 54.041 39.464 A 25.735 25.735 0 0 1 54.6 40.25 Q 57.3 44.2 57.3 49.9 Q 57.3 56.4 53.85 61.6 A 21.614 21.614 0 0 1 47.315 67.913 A 27.767 27.767 0 0 1 43.9 69.75 Q 37.4 72.7 28.5 72.7 A 52.832 52.832 0 0 1 20.183 72.086 Q 15.821 71.389 12.256 69.903 A 26.041 26.041 0 0 1 7.75 67.5 A 16.653 16.653 0 0 1 0.209 55.452 A 23.046 23.046 0 0 1 0 52.3 Q 0 51.535 0.117 50.183 A 67.561 67.561 0 0 1 0.2 49.3 Z M 64.4 49.3 L 88 49.3 A 12.615 12.615 0 0 0 87.95 50.026 Q 87.851 52.582 88.95 53.9 Q 90.2 55.4 93.1 55.4 A 5.953 5.953 0 0 0 94.464 55.252 A 4.351 4.351 0 0 0 96.1 54.5 A 2.927 2.927 0 0 0 97.271 52.412 A 4.328 4.328 0 0 0 97.3 51.9 A 4.391 4.391 0 0 0 95.873 48.646 A 6.889 6.889 0 0 0 94.95 47.9 A 21.24 21.24 0 0 0 93.403 46.953 Q 91.138 45.682 87.4 44.1 Q 83.147 42.31 80.036 40.63 A 48.16 48.16 0 0 1 78.05 39.5 A 20.666 20.666 0 0 1 72.746 34.869 A 24.453 24.453 0 0 1 71.7 33.5 Q 69 29.7 69 24 Q 69 16.5 72.75 11.05 A 22.563 22.563 0 0 1 81.178 3.74 A 27.925 27.925 0 0 1 83.2 2.8 A 35.66 35.66 0 0 1 92.071 0.428 A 46.624 46.624 0 0 1 98.5 0 Q 106.2 0 112.25 2.4 Q 118.3 4.8 121.75 9.35 A 16.976 16.976 0 0 1 125.159 18.764 A 21.36 21.36 0 0 1 125.2 20.1 A 10.643 10.643 0 0 1 125.188 20.573 Q 125.15 21.398 125 22.9 L 101.1 22.9 Q 101.273 21.865 101.296 21.425 A 2.349 2.349 0 0 0 101.3 21.3 A 5.264 5.264 0 0 0 101.17 20.095 Q 100.922 19.039 100.2 18.35 Q 99.113 17.312 97.244 17.301 A 6.839 6.839 0 0 0 97.2 17.3 A 4.734 4.734 0 0 0 95.884 17.475 A 3.7 3.7 0 0 0 94.4 18.3 A 3.308 3.308 0 0 0 93.305 20.691 A 4.487 4.487 0 0 0 93.3 20.9 A 4.085 4.085 0 0 0 94.289 23.549 Q 94.743 24.103 95.406 24.607 A 8.655 8.655 0 0 0 95.6 24.75 Q 97.513 26.122 101.292 28.013 A 109.881 109.881 0 0 0 102.9 28.8 Q 107.264 30.868 110.485 32.759 A 57.075 57.075 0 0 1 112.35 33.9 A 22.191 22.191 0 0 1 118.241 39.464 A 25.735 25.735 0 0 1 118.8 40.25 Q 121.5 44.2 121.5 49.9 Q 121.5 56.4 118.05 61.6 A 21.614 21.614 0 0 1 111.515 67.913 A 27.767 27.767 0 0 1 108.1 69.75 Q 101.6 72.7 92.7 72.7 A 52.832 52.832 0 0 1 84.383 72.086 Q 80.021 71.389 76.456 69.903 A 26.041 26.041 0 0 1 71.95 67.5 A 16.653 16.653 0 0 1 64.409 55.452 A 23.046 23.046 0 0 1 64.2 52.3 Q 64.2 51.535 64.317 50.183 A 67.561 67.561 0 0 1 64.4 49.3 Z M 175.9 44.9 L 186.5 72 L 162.1 72 L 153.2 46.6 L 148.7 72 L 126.5 72 L 139 1.2 L 172 1.2 A 40.756 40.756 0 0 1 178.512 1.686 Q 185.221 2.774 189.3 6.3 A 16.743 16.743 0 0 1 195.148 18.337 A 23.182 23.182 0 0 1 195.2 19.9 A 26.861 26.861 0 0 1 195.1 22.275 A 19.77 19.77 0 0 1 194.8 24.4 Q 193.5 31.6 188.6 37.05 A 26.565 26.565 0 0 1 178.949 43.8 A 33.063 33.063 0 0 1 175.9 44.9 Z M 157.9 19.8 L 155.8 31.8 L 164.6 31.8 A 11.425 11.425 0 0 0 166.619 31.633 Q 167.747 31.43 168.646 30.982 A 5.856 5.856 0 0 0 169.65 30.35 A 5.909 5.909 0 0 0 171.258 28.353 Q 171.818 27.26 172.1 25.8 A 4.332 4.332 0 0 0 172.157 25.421 Q 172.2 25.025 172.2 24.5 A 5.57 5.57 0 0 0 172.019 23.042 A 4.017 4.017 0 0 0 170.8 21.05 Q 169.4 19.8 166.7 19.8 L 157.9 19.8 Z" id="path21" />
            </g>
            <g transform="translate(0,85) scale(0.75 0.75)" fill="url(#Glass-1)" fill-rule="nonzero" fill-opacity="0.7" id="g22">
                <path d="M 0.2 49.3 L 23.8 49.3 A 12.615 12.615 0 0 0 23.75 50.026 Q 23.651 52.582 24.75 53.9 Q 26 55.4 28.9 55.4 A 5.953 5.953 0 0 0 30.264 55.252 A 4.351 4.351 0 0 0 31.9 54.5 A 2.927 2.927 0 0 0 33.071 52.412 A 4.328 4.328 0 0 0 33.1 51.9 A 4.391 4.391 0 0 0 31.673 48.646 A 6.889 6.889 0 0 0 30.75 47.9 A 21.24 21.24 0 0 0 29.203 46.953 Q 26.938 45.682 23.2 44.1 Q 18.947 42.31 15.836 40.63 A 48.16 48.16 0 0 1 13.85 39.5 A 20.666 20.666 0 0 1 8.546 34.869 A 24.453 24.453 0 0 1 7.5 33.5 Q 4.8 29.7 4.8 24 Q 4.8 16.5 8.55 11.05 A 22.563 22.563 0 0 1 16.978 3.74 A 27.925 27.925 0 0 1 19 2.8 A 35.66 35.66 0 0 1 27.871 0.428 A 46.624 46.624 0 0 1 34.3 0 Q 42 0 48.05 2.4 Q 54.1 4.8 57.55 9.35 A 16.976 16.976 0 0 1 60.959 18.764 A 21.36 21.36 0 0 1 61 20.1 A 10.643 10.643 0 0 1 60.988 20.573 Q 60.95 21.398 60.8 22.9 L 36.9 22.9 Q 37.073 21.865 37.096 21.425 A 2.349 2.349 0 0 0 37.1 21.3 A 5.264 5.264 0 0 0 36.97 20.095 Q 36.722 19.039 36 18.35 Q 34.913 17.312 33.044 17.301 A 6.839 6.839 0 0 0 33 17.3 A 4.734 4.734 0 0 0 31.684 17.475 A 3.7 3.7 0 0 0 30.2 18.3 A 3.308 3.308 0 0 0 29.105 20.691 A 4.487 4.487 0 0 0 29.1 20.9 A 4.085 4.085 0 0 0 30.089 23.549 Q 30.543 24.103 31.206 24.607 A 8.655 8.655 0 0 0 31.4 24.75 Q 33.313 26.122 37.092 28.013 A 109.881 109.881 0 0 0 38.7 28.8 Q 43.064 30.868 46.285 32.759 A 57.075 57.075 0 0 1 48.15 33.9 A 22.191 22.191 0 0 1 54.041 39.464 A 25.735 25.735 0 0 1 54.6 40.25 Q 57.3 44.2 57.3 49.9 Q 57.3 56.4 53.85 61.6 A 21.614 21.614 0 0 1 47.315 67.913 A 27.767 27.767 0 0 1 43.9 69.75 Q 37.4 72.7 28.5 72.7 A 52.832 52.832 0 0 1 20.183 72.086 Q 15.821 71.389 12.256 69.903 A 26.041 26.041 0 0 1 7.75 67.5 A 16.653 16.653 0 0 1 0.209 55.452 A 23.046 23.046 0 0 1 0 52.3 Q 0 51.535 0.117 50.183 A 67.561 67.561 0 0 1 0.2 49.3 Z M 64.4 49.3 L 88 49.3 A 12.615 12.615 0 0 0 87.95 50.026 Q 87.851 52.582 88.95 53.9 Q 90.2 55.4 93.1 55.4 A 5.953 5.953 0 0 0 94.464 55.252 A 4.351 4.351 0 0 0 96.1 54.5 A 2.927 2.927 0 0 0 97.271 52.412 A 4.328 4.328 0 0 0 97.3 51.9 A 4.391 4.391 0 0 0 95.873 48.646 A 6.889 6.889 0 0 0 94.95 47.9 A 21.24 21.24 0 0 0 93.403 46.953 Q 91.138 45.682 87.4 44.1 Q 83.147 42.31 80.036 40.63 A 48.16 48.16 0 0 1 78.05 39.5 A 20.666 20.666 0 0 1 72.746 34.869 A 24.453 24.453 0 0 1 71.7 33.5 Q 69 29.7 69 24 Q 69 16.5 72.75 11.05 A 22.563 22.563 0 0 1 81.178 3.74 A 27.925 27.925 0 0 1 83.2 2.8 A 35.66 35.66 0 0 1 92.071 0.428 A 46.624 46.624 0 0 1 98.5 0 Q 106.2 0 112.25 2.4 Q 118.3 4.8 121.75 9.35 A 16.976 16.976 0 0 1 125.159 18.764 A 21.36 21.36 0 0 1 125.2 20.1 A 10.643 10.643 0 0 1 125.188 20.573 Q 125.15 21.398 125 22.9 L 101.1 22.9 Q 101.273 21.865 101.296 21.425 A 2.349 2.349 0 0 0 101.3 21.3 A 5.264 5.264 0 0 0 101.17 20.095 Q 100.922 19.039 100.2 18.35 Q 99.113 17.312 97.244 17.301 A 6.839 6.839 0 0 0 97.2 17.3 A 4.734 4.734 0 0 0 95.884 17.475 A 3.7 3.7 0 0 0 94.4 18.3 A 3.308 3.308 0 0 0 93.305 20.691 A 4.487 4.487 0 0 0 93.3 20.9 A 4.085 4.085 0 0 0 94.289 23.549 Q 94.743 24.103 95.406 24.607 A 8.655 8.655 0 0 0 95.6 24.75 Q 97.513 26.122 101.292 28.013 A 109.881 109.881 0 0 0 102.9 28.8 Q 107.264 30.868 110.485 32.759 A 57.075 57.075 0 0 1 112.35 33.9 A 22.191 22.191 0 0 1 118.241 39.464 A 25.735 25.735 0 0 1 118.8 40.25 Q 121.5 44.2 121.5 49.9 Q 121.5 56.4 118.05 61.6 A 21.614 21.614 0 0 1 111.515 67.913 A 27.767 27.767 0 0 1 108.1 69.75 Q 101.6 72.7 92.7 72.7 A 52.832 52.832 0 0 1 84.383 72.086 Q 80.021 71.389 76.456 69.903 A 26.041 26.041 0 0 1 71.95 67.5 A 16.653 16.653 0 0 1 64.409 55.452 A 23.046 23.046 0 0 1 64.2 52.3 Q 64.2 51.535 64.317 50.183 A 67.561 67.561 0 0 1 64.4 49.3 Z M 175.9 44.9 L 186.5 72 L 162.1 72 L 153.2 46.6 L 148.7 72 L 126.5 72 L 139 1.2 L 172 1.2 A 40.756 40.756 0 0 1 178.512 1.686 Q 185.221 2.774 189.3 6.3 A 16.743 16.743 0 0 1 195.148 18.337 A 23.182 23.182 0 0 1 195.2 19.9 A 26.861 26.861 0 0 1 195.1 22.275 A 19.77 19.77 0 0 1 194.8 24.4 Q 193.5 31.6 188.6 37.05 A 26.565 26.565 0 0 1 178.949 43.8 A 33.063 33.063 0 0 1 175.9 44.9 Z M 157.9 19.8 L 155.8 31.8 L 164.6 31.8 A 11.425 11.425 0 0 0 166.619 31.633 Q 167.747 31.43 168.646 30.982 A 5.856 5.856 0 0 0 169.65 30.35 A 5.909 5.909 0 0 0 171.258 28.353 Q 171.818 27.26 172.1 25.8 A 4.332 4.332 0 0 0 172.157 25.421 Q 172.2 25.025 172.2 24.5 A 5.57 5.57 0 0 0 172.019 23.042 A 4.017 4.017 0 0 0 170.8 21.05 Q 169.4 19.8 166.7 19.8 L 157.9 19.8 Z" id="path22" />
            </g>
        </g>
    </g>
</svg>